# xmcd
#
# Track frame offsets: 
#        150
#        27956
#        48685
#        69390
#        94245
#        113400
#        135923
#        157194
#        175804
#
# Disc length: 2667 seconds
#
# Revision: 0
# Processed by: cddbd v1.5.2PL0 Copyright (c) Steve Scherf et al.
# Submitted via: ExactAudioCopy v0.99pb3
#
DISCID=710a6909
DTITLE=Tam White - Groove Connection
DYEAR=1900
DGENRE=Blues
TTITLE0=Mad Sam
TTITLE1=Cobra
TTITLE2=Save me
TTITLE3=The Good, the Bad and the Funky
TTITLE4=The Fool
TTITLE5=Man Dancin'
TTITLE6=K.B'd
TTITLE7=Home is where the hatred is
TTITLE8=3 Time loser
EXTD=
EXTT0=
EXTT1=
EXTT2=
EXTT3=
EXTT4=
EXTT5=
EXTT6=
EXTT7=
EXTT8=
PLAYORDER=
